<svg xmlns="http://www.w3.org/2000/svg" xmlns:xlink="http://www.w3.org/1999/xlink" width="500" zoomAndPan="magnify" viewBox="0 0 375 149.999998" height="200" preserveAspectRatio="xMidYMid meet" version="1.0"><defs><g/><clipPath id="b84e040084"><path d="M 1.984375 51.402344 L 57.8125 51.402344 L 57.8125 107.230469 L 1.984375 107.230469 Z M 1.984375 51.402344 " clip-rule="nonzero"/></clipPath><clipPath id="e84aff74f6"><path d="M 29.898438 51.402344 C 14.480469 51.402344 1.984375 63.902344 1.984375 79.316406 C 1.984375 94.734375 14.480469 107.230469 29.898438 107.230469 C 45.316406 107.230469 57.8125 94.734375 57.8125 79.316406 C 57.8125 63.902344 45.316406 51.402344 29.898438 51.402344 Z M 29.898438 51.402344 " clip-rule="nonzero"/></clipPath><linearGradient x1="-0.0000000672775" gradientTransform="matrix(0.218081, 0, 0, 0.218081, 1.98413, 51.402963)" y1="0" x2="256.000005" gradientUnits="userSpaceOnUse" y2="0" id="2d431d73ad"><stop stop-opacity="1" stop-color="rgb(16.899109%, 63.499451%, 41.19873%)" offset="0"/><stop stop-opacity="1" stop-color="rgb(16.766357%, 63.374329%, 41.25061%)" offset="0.015625"/><stop stop-opacity="1" stop-color="rgb(16.50238%, 63.124084%, 41.35437%)" offset="0.03125"/><stop stop-opacity="1" stop-color="rgb(16.238403%, 62.87384%, 41.456604%)" offset="0.046875"/><stop stop-opacity="1" stop-color="rgb(15.974426%, 62.623596%, 41.560364%)" offset="0.0625"/><stop stop-opacity="1" stop-color="rgb(15.710449%, 62.373352%, 41.662598%)" offset="0.078125"/><stop stop-opacity="1" stop-color="rgb(15.446472%, 62.124634%, 41.766357%)" offset="0.09375"/><stop stop-opacity="1" stop-color="rgb(15.182495%, 61.87439%, 41.868591%)" offset="0.109375"/><stop stop-opacity="1" stop-color="rgb(14.918518%, 61.624146%, 41.972351%)" offset="0.125"/><stop stop-opacity="1" stop-color="rgb(14.654541%, 61.373901%, 42.076111%)" offset="0.140625"/><stop stop-opacity="1" stop-color="rgb(14.390564%, 61.123657%, 42.178345%)" offset="0.15625"/><stop stop-opacity="1" stop-color="rgb(14.126587%, 60.873413%, 42.282104%)" offset="0.171875"/><stop stop-opacity="1" stop-color="rgb(13.861084%, 60.624695%, 42.384338%)" offset="0.1875"/><stop stop-opacity="1" stop-color="rgb(13.597107%, 60.374451%, 42.488098%)" offset="0.203125"/><stop stop-opacity="1" stop-color="rgb(13.33313%, 60.124207%, 42.591858%)" offset="0.21875"/><stop stop-opacity="1" stop-color="rgb(13.069153%, 59.873962%, 42.694092%)" offset="0.234375"/><stop stop-opacity="1" stop-color="rgb(12.805176%, 59.623718%, 42.797852%)" offset="0.25"/><stop stop-opacity="1" stop-color="rgb(12.541199%, 59.373474%, 42.900085%)" offset="0.265625"/><stop stop-opacity="1" stop-color="rgb(12.277222%, 59.124756%, 43.003845%)" offset="0.28125"/><stop stop-opacity="1" stop-color="rgb(12.013245%, 58.874512%, 43.106079%)" offset="0.296875"/><stop stop-opacity="1" stop-color="rgb(11.749268%, 58.624268%, 43.209839%)" offset="0.3125"/><stop stop-opacity="1" stop-color="rgb(11.485291%, 58.374023%, 43.313599%)" offset="0.328125"/><stop stop-opacity="1" stop-color="rgb(11.221313%, 58.123779%, 43.415833%)" offset="0.34375"/><stop stop-opacity="1" stop-color="rgb(10.957336%, 57.873535%, 43.519592%)" offset="0.359375"/><stop stop-opacity="1" stop-color="rgb(10.693359%, 57.624817%, 43.621826%)" offset="0.375"/><stop stop-opacity="1" stop-color="rgb(10.429382%, 57.374573%, 43.725586%)" offset="0.390625"/><stop stop-opacity="1" stop-color="rgb(10.165405%, 57.124329%, 43.829346%)" offset="0.40625"/><stop stop-opacity="1" stop-color="rgb(9.901428%, 56.874084%, 43.93158%)" offset="0.421875"/><stop stop-opacity="1" stop-color="rgb(9.637451%, 56.62384%, 44.035339%)" offset="0.4375"/><stop stop-opacity="1" stop-color="rgb(9.373474%, 56.373596%, 44.137573%)" offset="0.453125"/><stop stop-opacity="1" stop-color="rgb(9.107971%, 56.123352%, 44.241333%)" offset="0.46875"/><stop stop-opacity="1" stop-color="rgb(8.843994%, 55.874634%, 44.343567%)" offset="0.484375"/><stop stop-opacity="1" stop-color="rgb(8.580017%, 55.62439%, 44.447327%)" offset="0.5"/><stop stop-opacity="1" stop-color="rgb(8.31604%, 55.374146%, 44.551086%)" offset="0.515625"/><stop stop-opacity="1" stop-color="rgb(8.052063%, 55.123901%, 44.65332%)" offset="0.53125"/><stop stop-opacity="1" stop-color="rgb(7.788086%, 54.873657%, 44.75708%)" offset="0.546875"/><stop stop-opacity="1" stop-color="rgb(7.524109%, 54.623413%, 44.859314%)" offset="0.5625"/><stop stop-opacity="1" stop-color="rgb(7.260132%, 54.374695%, 44.963074%)" offset="0.578125"/><stop stop-opacity="1" stop-color="rgb(6.996155%, 54.124451%, 45.066833%)" offset="0.59375"/><stop stop-opacity="1" stop-color="rgb(6.732178%, 53.874207%, 45.169067%)" offset="0.609375"/><stop stop-opacity="1" stop-color="rgb(6.468201%, 53.623962%, 45.272827%)" offset="0.625"/><stop stop-opacity="1" stop-color="rgb(6.204224%, 53.373718%, 45.375061%)" offset="0.640625"/><stop stop-opacity="1" stop-color="rgb(5.940247%, 53.123474%, 45.478821%)" offset="0.65625"/><stop stop-opacity="1" stop-color="rgb(5.67627%, 52.874756%, 45.581055%)" offset="0.671875"/><stop stop-opacity="1" stop-color="rgb(5.412292%, 52.624512%, 45.684814%)" offset="0.6875"/><stop stop-opacity="1" stop-color="rgb(5.148315%, 52.374268%, 45.788574%)" offset="0.703125"/><stop stop-opacity="1" stop-color="rgb(4.884338%, 52.124023%, 45.890808%)" offset="0.71875"/><stop stop-opacity="1" stop-color="rgb(4.620361%, 51.873779%, 45.994568%)" offset="0.734375"/><stop stop-opacity="1" stop-color="rgb(4.354858%, 51.623535%, 46.096802%)" offset="0.75"/><stop stop-opacity="1" stop-color="rgb(4.090881%, 51.374817%, 46.200562%)" offset="0.765625"/><stop stop-opacity="1" stop-color="rgb(3.826904%, 51.124573%, 46.304321%)" offset="0.78125"/><stop stop-opacity="1" stop-color="rgb(3.562927%, 50.874329%, 46.406555%)" offset="0.796875"/><stop stop-opacity="1" stop-color="rgb(3.29895%, 50.624084%, 46.510315%)" offset="0.8125"/><stop stop-opacity="1" stop-color="rgb(3.034973%, 50.37384%, 46.612549%)" offset="0.828125"/><stop stop-opacity="1" stop-color="rgb(2.770996%, 50.123596%, 46.716309%)" offset="0.84375"/><stop stop-opacity="1" stop-color="rgb(2.507019%, 49.873352%, 46.818542%)" offset="0.859375"/><stop stop-opacity="1" stop-color="rgb(2.243042%, 49.624634%, 46.922302%)" offset="0.875"/><stop stop-opacity="1" stop-color="rgb(1.979065%, 49.37439%, 47.026062%)" offset="0.890625"/><stop stop-opacity="1" stop-color="rgb(1.715088%, 49.124146%, 47.128296%)" offset="0.90625"/><stop stop-opacity="1" stop-color="rgb(1.451111%, 48.873901%, 47.232056%)" offset="0.921875"/><stop stop-opacity="1" stop-color="rgb(1.187134%, 48.623657%, 47.33429%)" offset="0.9375"/><stop stop-opacity="1" stop-color="rgb(0.923157%, 48.373413%, 47.438049%)" offset="0.953125"/><stop stop-opacity="1" stop-color="rgb(0.65918%, 48.124695%, 47.541809%)" offset="0.96875"/><stop stop-opacity="1" stop-color="rgb(0.395203%, 47.874451%, 47.644043%)" offset="0.984375"/><stop stop-opacity="1" stop-color="rgb(0.131226%, 47.624207%, 47.747803%)" offset="1"/></linearGradient><clipPath id="aefc37225a"><path d="M 7.554688 57.113281 L 51.890625 57.113281 L 51.890625 101.449219 L 7.554688 101.449219 Z M 7.554688 57.113281 " clip-rule="nonzero"/></clipPath><clipPath id="ad910c7d6e"><path d="M 44 88 L 56 88 L 56 100 L 44 100 Z M 44 88 " clip-rule="nonzero"/></clipPath><clipPath id="bc6544a58e"><path d="M 44.109375 93.445312 L 47.371094 88.703125 L 55.605469 94.363281 L 52.34375 99.109375 Z M 44.109375 93.445312 " clip-rule="nonzero"/></clipPath><clipPath id="6430f2be6f"><path d="M 44.109375 93.445312 L 47.371094 88.703125 L 55.605469 94.363281 L 52.34375 99.109375 Z M 44.109375 93.445312 " clip-rule="nonzero"/></clipPath><clipPath id="5e548f6483"><path d="M 14.273438 63.832031 L 45.246094 63.832031 L 45.246094 94.800781 L 14.273438 94.800781 Z M 14.273438 63.832031 " clip-rule="nonzero"/></clipPath><clipPath id="07e7137e55"><path d="M 29.757812 63.832031 C 21.207031 63.832031 14.273438 70.765625 14.273438 79.316406 C 14.273438 87.871094 21.207031 94.800781 29.757812 94.800781 C 38.3125 94.800781 45.246094 87.871094 45.246094 79.316406 C 45.246094 70.765625 38.3125 63.832031 29.757812 63.832031 Z M 29.757812 63.832031 " clip-rule="nonzero"/></clipPath><linearGradient x1="-0.00000359391" gradientTransform="matrix(0.120976, 0, 0, 0.120976, 14.274628, 63.832475)" y1="0" x2="255.999994" gradientUnits="userSpaceOnUse" y2="0" id="89e952463e"><stop stop-opacity="1" stop-color="rgb(16.899109%, 63.499451%, 41.19873%)" offset="0"/><stop stop-opacity="1" stop-color="rgb(16.766357%, 63.374329%, 41.25061%)" offset="0.015625"/><stop stop-opacity="1" stop-color="rgb(16.50238%, 63.124084%, 41.352844%)" offset="0.03125"/><stop stop-opacity="1" stop-color="rgb(16.238403%, 62.87384%, 41.456604%)" offset="0.046875"/><stop stop-opacity="1" stop-color="rgb(15.974426%, 62.623596%, 41.560364%)" offset="0.0625"/><stop stop-opacity="1" stop-color="rgb(15.710449%, 62.374878%, 41.662598%)" offset="0.078125"/><stop stop-opacity="1" stop-color="rgb(15.446472%, 62.124634%, 41.766357%)" offset="0.09375"/><stop stop-opacity="1" stop-color="rgb(15.182495%, 61.87439%, 41.868591%)" offset="0.109375"/><stop stop-opacity="1" stop-color="rgb(14.918518%, 61.624146%, 41.972351%)" offset="0.125"/><stop stop-opacity="1" stop-color="rgb(14.654541%, 61.373901%, 42.076111%)" offset="0.140625"/><stop stop-opacity="1" stop-color="rgb(14.390564%, 61.123657%, 42.178345%)" offset="0.15625"/><stop stop-opacity="1" stop-color="rgb(14.126587%, 60.873413%, 42.282104%)" offset="0.171875"/><stop stop-opacity="1" stop-color="rgb(13.861084%, 60.624695%, 42.384338%)" offset="0.1875"/><stop stop-opacity="1" stop-color="rgb(13.597107%, 60.374451%, 42.488098%)" offset="0.203125"/><stop stop-opacity="1" stop-color="rgb(13.33313%, 60.124207%, 42.591858%)" offset="0.21875"/><stop stop-opacity="1" stop-color="rgb(13.069153%, 59.873962%, 42.694092%)" offset="0.234375"/><stop stop-opacity="1" stop-color="rgb(12.805176%, 59.623718%, 42.797852%)" offset="0.25"/><stop stop-opacity="1" stop-color="rgb(12.541199%, 59.373474%, 42.900085%)" offset="0.265625"/><stop stop-opacity="1" stop-color="rgb(12.277222%, 59.124756%, 43.003845%)" offset="0.28125"/><stop stop-opacity="1" stop-color="rgb(12.013245%, 58.874512%, 43.106079%)" offset="0.296875"/><stop stop-opacity="1" stop-color="rgb(11.749268%, 58.624268%, 43.209839%)" offset="0.3125"/><stop stop-opacity="1" stop-color="rgb(11.485291%, 58.374023%, 43.313599%)" offset="0.328125"/><stop stop-opacity="1" stop-color="rgb(11.221313%, 58.123779%, 43.415833%)" offset="0.34375"/><stop stop-opacity="1" stop-color="rgb(10.957336%, 57.873535%, 43.519592%)" offset="0.359375"/><stop stop-opacity="1" stop-color="rgb(10.693359%, 57.624817%, 43.621826%)" offset="0.375"/><stop stop-opacity="1" stop-color="rgb(10.429382%, 57.374573%, 43.725586%)" offset="0.390625"/><stop stop-opacity="1" stop-color="rgb(10.165405%, 57.124329%, 43.829346%)" offset="0.40625"/><stop stop-opacity="1" stop-color="rgb(9.901428%, 56.874084%, 43.93158%)" offset="0.421875"/><stop stop-opacity="1" stop-color="rgb(9.637451%, 56.62384%, 44.035339%)" offset="0.4375"/><stop stop-opacity="1" stop-color="rgb(9.373474%, 56.373596%, 44.137573%)" offset="0.453125"/><stop stop-opacity="1" stop-color="rgb(9.107971%, 56.124878%, 44.241333%)" offset="0.46875"/><stop stop-opacity="1" stop-color="rgb(8.843994%, 55.874634%, 44.343567%)" offset="0.484375"/><stop stop-opacity="1" stop-color="rgb(8.580017%, 55.62439%, 44.447327%)" offset="0.5"/><stop stop-opacity="1" stop-color="rgb(8.31604%, 55.374146%, 44.551086%)" offset="0.515625"/><stop stop-opacity="1" stop-color="rgb(8.052063%, 55.123901%, 44.65332%)" offset="0.53125"/><stop stop-opacity="1" stop-color="rgb(7.788086%, 54.873657%, 44.75708%)" offset="0.546875"/><stop stop-opacity="1" stop-color="rgb(7.524109%, 54.623413%, 44.859314%)" offset="0.5625"/><stop stop-opacity="1" stop-color="rgb(7.260132%, 54.374695%, 44.963074%)" offset="0.578125"/><stop stop-opacity="1" stop-color="rgb(6.996155%, 54.124451%, 45.066833%)" offset="0.59375"/><stop stop-opacity="1" stop-color="rgb(6.732178%, 53.874207%, 45.169067%)" offset="0.609375"/><stop stop-opacity="1" stop-color="rgb(6.468201%, 53.623962%, 45.272827%)" offset="0.625"/><stop stop-opacity="1" stop-color="rgb(6.204224%, 53.373718%, 45.375061%)" offset="0.640625"/><stop stop-opacity="1" stop-color="rgb(5.940247%, 53.123474%, 45.478821%)" offset="0.65625"/><stop stop-opacity="1" stop-color="rgb(5.67627%, 52.874756%, 45.581055%)" offset="0.671875"/><stop stop-opacity="1" stop-color="rgb(5.412292%, 52.624512%, 45.684814%)" offset="0.6875"/><stop stop-opacity="1" stop-color="rgb(5.148315%, 52.374268%, 45.788574%)" offset="0.703125"/><stop stop-opacity="1" stop-color="rgb(4.884338%, 52.124023%, 45.890808%)" offset="0.71875"/><stop stop-opacity="1" stop-color="rgb(4.620361%, 51.873779%, 45.994568%)" offset="0.734375"/><stop stop-opacity="1" stop-color="rgb(4.354858%, 51.623535%, 46.096802%)" offset="0.75"/><stop stop-opacity="1" stop-color="rgb(4.090881%, 51.374817%, 46.200562%)" offset="0.765625"/><stop stop-opacity="1" stop-color="rgb(3.826904%, 51.124573%, 46.304321%)" offset="0.78125"/><stop stop-opacity="1" stop-color="rgb(3.562927%, 50.874329%, 46.406555%)" offset="0.796875"/><stop stop-opacity="1" stop-color="rgb(3.29895%, 50.624084%, 46.510315%)" offset="0.8125"/><stop stop-opacity="1" stop-color="rgb(3.034973%, 50.37384%, 46.612549%)" offset="0.828125"/><stop stop-opacity="1" stop-color="rgb(2.770996%, 50.123596%, 46.716309%)" offset="0.84375"/><stop stop-opacity="1" stop-color="rgb(2.507019%, 49.874878%, 46.818542%)" offset="0.859375"/><stop stop-opacity="1" stop-color="rgb(2.243042%, 49.624634%, 46.922302%)" offset="0.875"/><stop stop-opacity="1" stop-color="rgb(1.979065%, 49.37439%, 47.026062%)" offset="0.890625"/><stop stop-opacity="1" stop-color="rgb(1.715088%, 49.124146%, 47.128296%)" offset="0.90625"/><stop stop-opacity="1" stop-color="rgb(1.451111%, 48.873901%, 47.232056%)" offset="0.921875"/><stop stop-opacity="1" stop-color="rgb(1.187134%, 48.623657%, 47.33429%)" offset="0.9375"/><stop stop-opacity="1" stop-color="rgb(0.923157%, 48.373413%, 47.438049%)" offset="0.953125"/><stop stop-opacity="1" stop-color="rgb(0.65918%, 48.124695%, 47.541809%)" offset="0.96875"/><stop stop-opacity="1" stop-color="rgb(0.395203%, 47.874451%, 47.644043%)" offset="0.984375"/><stop stop-opacity="1" stop-color="rgb(0.131226%, 47.624207%, 47.747803%)" offset="1"/></linearGradient></defs><g fill="#269b63" fill-opacity="1"><g transform="translate(66.640932, 91.66156)"><g><path d="M 26.132812 10.496094 L 26.132812 -4.460938 L 25.503906 -4.460938 C 25.050781 -3.621094 24.410156 -2.800781 23.589844 -1.996094 C 22.765625 -1.191406 21.707031 -0.535156 20.414062 -0.0273438 C 19.121094 0.480469 17.527344 0.734375 15.640625 0.734375 C 13.363281 0.734375 11.292969 0.199219 9.421875 -0.867188 C 7.546875 -1.933594 6.070312 -3.453125 4.984375 -5.429688 C 3.902344 -7.410156 3.359375 -9.742188 3.359375 -12.4375 L 3.359375 -13.066406 C 3.359375 -15.796875 3.910156 -18.140625 5.011719 -20.097656 C 6.113281 -22.058594 7.59375 -23.570312 9.445312 -24.640625 C 11.300781 -25.707031 13.363281 -26.238281 15.640625 -26.238281 C 18.4375 -26.238281 20.617188 -25.6875 22.171875 -24.585938 C 23.730469 -23.484375 24.875 -22.234375 25.609375 -20.835938 L 26.238281 -20.835938 L 26.238281 -25.503906 L 29.285156 -25.503906 L 29.285156 10.496094 Z M 16.375 -2.097656 C 19.277344 -2.097656 21.628906 -3.027344 23.433594 -4.878906 C 25.234375 -6.734375 26.132812 -9.289062 26.132812 -12.542969 L 26.132812 -12.960938 C 26.132812 -16.214844 25.234375 -18.769531 23.433594 -20.625 C 21.628906 -22.480469 19.277344 -23.40625 16.375 -23.40625 C 13.503906 -23.40625 11.160156 -22.480469 9.339844 -20.625 C 7.523438 -18.769531 6.613281 -16.214844 6.613281 -12.960938 L 6.613281 -12.542969 C 6.613281 -9.289062 7.523438 -6.734375 9.339844 -4.878906 C 11.160156 -3.027344 13.503906 -2.097656 16.375 -2.097656 Z M 16.375 -2.097656 "/></g></g></g><g fill="#269b63" fill-opacity="1"><g transform="translate(100.535844, 91.66156)"><g><path d="M 14.433594 0.523438 C 12.613281 0.523438 10.925781 0.140625 9.367188 -0.628906 C 7.8125 -1.398438 6.570312 -2.5625 5.640625 -4.121094 C 4.714844 -5.675781 4.25 -7.628906 4.25 -9.972656 L 4.25 -25.503906 L 7.398438 -25.503906 L 7.398438 -10.179688 C 7.398438 -7.417969 8.097656 -5.414062 9.5 -4.171875 C 10.898438 -2.929688 12.769531 -2.308594 15.113281 -2.308594 C 17.738281 -2.308594 19.925781 -3.175781 21.675781 -4.90625 C 23.421875 -6.636719 24.296875 -9.253906 24.296875 -12.753906 L 24.296875 -25.503906 L 27.445312 -25.503906 L 27.445312 0 L 24.402344 0 L 24.402344 -4.722656 L 23.773438 -4.722656 C 23.144531 -3.359375 22.109375 -2.144531 20.675781 -1.074219 C 19.242188 -0.0078125 17.160156 0.523438 14.433594 0.523438 Z M 14.433594 0.523438 "/></g></g></g><g fill="#269b63" fill-opacity="1"><g transform="translate(132.594336, 91.66156)"><g><path d="M 12.4375 0.734375 C 10.652344 0.734375 9.035156 0.429688 7.582031 -0.183594 C 6.132812 -0.796875 4.984375 -1.695312 4.144531 -2.886719 C 3.304688 -4.074219 2.886719 -5.511719 2.886719 -7.191406 C 2.886719 -8.902344 3.304688 -10.320312 4.144531 -11.441406 C 4.984375 -12.558594 6.121094 -13.398438 7.558594 -13.960938 C 8.992188 -14.519531 10.582031 -14.800781 12.332031 -14.800781 L 21.675781 -14.800781 L 21.675781 -16.847656 C 21.675781 -18.910156 21.078125 -20.519531 19.890625 -21.675781 C 18.699219 -22.828125 16.96875 -23.40625 14.695312 -23.40625 C 12.453125 -23.40625 10.679688 -22.855469 9.367188 -21.753906 C 8.054688 -20.652344 7.171875 -19.171875 6.71875 -17.316406 L 3.671875 -18.210938 C 4.09375 -19.714844 4.757812 -21.070312 5.667969 -22.277344 C 6.578125 -23.484375 7.785156 -24.445312 9.289062 -25.164062 C 10.792969 -25.882812 12.59375 -26.238281 14.695312 -26.238281 C 17.914062 -26.238281 20.40625 -25.398438 22.171875 -23.71875 C 23.9375 -22.042969 24.824219 -19.695312 24.824219 -16.6875 L 24.824219 -4.304688 C 24.824219 -3.253906 25.3125 -2.730469 26.292969 -2.730469 L 28.757812 -2.730469 L 28.757812 0 L 25.398438 0 C 24.316406 0 23.457031 -0.324219 22.828125 -0.972656 C 22.199219 -1.617188 21.882812 -2.5 21.882812 -3.621094 L 21.882812 -3.988281 L 21.359375 -3.988281 C 20.902344 -3.21875 20.316406 -2.464844 19.601562 -1.730469 C 18.882812 -0.996094 17.949219 -0.402344 16.792969 0.0507812 C 15.640625 0.507812 14.1875 0.734375 12.4375 0.734375 Z M 12.648438 -2.097656 C 15.339844 -2.097656 17.519531 -2.914062 19.179688 -4.539062 C 20.84375 -6.167969 21.675781 -8.464844 21.675781 -11.441406 L 21.675781 -12.070312 L 12.386719 -12.070312 C 10.566406 -12.070312 9.050781 -11.675781 7.84375 -10.890625 C 6.636719 -10.101562 6.035156 -8.886719 6.035156 -7.242188 C 6.035156 -5.597656 6.65625 -4.328125 7.898438 -3.4375 C 9.140625 -2.546875 10.722656 -2.097656 12.648438 -2.097656 Z M 12.648438 -2.097656 "/></g></g></g><g fill="#269b63" fill-opacity="1"><g transform="translate(162.711488, 91.66156)"><g><path d="M 4.617188 0 L 4.617188 -25.503906 L 7.660156 -25.503906 L 7.660156 -20.78125 L 8.292969 -20.78125 C 8.921875 -22.144531 9.953125 -23.363281 11.386719 -24.429688 C 12.824219 -25.496094 14.902344 -26.03125 17.632812 -26.03125 C 19.488281 -26.03125 21.183594 -25.644531 22.722656 -24.875 C 24.261719 -24.105469 25.496094 -22.941406 26.421875 -21.386719 C 27.351562 -19.828125 27.8125 -17.878906 27.8125 -15.535156 L 27.8125 0 L 24.664062 0 L 24.664062 -15.324219 C 24.664062 -18.121094 23.964844 -20.132812 22.566406 -21.359375 C 21.167969 -22.582031 19.292969 -23.195312 16.949219 -23.195312 C 14.328125 -23.195312 12.140625 -22.328125 10.390625 -20.597656 C 8.640625 -18.867188 7.765625 -16.25 7.765625 -12.753906 L 7.765625 0 Z M 4.617188 0 "/></g></g></g><g fill="#269b63" fill-opacity="1"><g transform="translate(194.822454, 91.66156)"><g><path d="M 13.855469 0 C 12.488281 0 11.464844 -0.351562 10.785156 -1.050781 C 10.101562 -1.75 9.761719 -2.730469 9.761719 -3.988281 L 9.761719 -22.671875 L 1.574219 -22.671875 L 1.574219 -25.503906 L 9.761719 -25.503906 L 9.761719 -35.054688 L 12.910156 -35.054688 L 12.910156 -25.503906 L 21.832031 -25.503906 L 21.832031 -22.671875 L 12.910156 -22.671875 L 12.910156 -4.410156 C 12.910156 -3.359375 13.433594 -2.832031 14.484375 -2.832031 L 20.46875 -2.832031 L 20.46875 0 Z M 13.855469 0 "/></g></g></g><g fill="#269b63" fill-opacity="1"><g transform="translate(219.063087, 91.66156)"><g><path d="M 14.746094 0.734375 C 11.667969 0.734375 9.035156 0 6.847656 -1.46875 C 4.660156 -2.9375 3.324219 -5.371094 2.832031 -8.765625 L 5.929688 -9.339844 C 6.210938 -7.488281 6.777344 -6.027344 7.636719 -4.960938 C 8.492188 -3.890625 9.542969 -3.132812 10.785156 -2.675781 C 12.027344 -2.222656 13.347656 -1.996094 14.746094 -1.996094 C 16.847656 -1.996094 18.535156 -2.421875 19.8125 -3.28125 C 21.085938 -4.136719 21.726562 -5.316406 21.726562 -6.824219 C 21.726562 -8.363281 21.121094 -9.429688 19.914062 -10.023438 C 18.707031 -10.617188 17.109375 -11.089844 15.113281 -11.441406 L 12.699219 -11.859375 C 11.089844 -12.140625 9.636719 -12.570312 8.34375 -13.144531 C 7.050781 -13.722656 6.027344 -14.5 5.273438 -15.480469 C 4.523438 -16.460938 4.144531 -17.683594 4.144531 -19.15625 C 4.144531 -21.359375 5.011719 -23.089844 6.742188 -24.351562 C 8.476562 -25.609375 10.777344 -26.238281 13.644531 -26.238281 C 16.546875 -26.238281 18.882812 -25.582031 20.652344 -24.273438 C 22.417969 -22.960938 23.527344 -21.0625 23.984375 -18.578125 L 21.042969 -17.949219 C 20.695312 -19.976562 19.863281 -21.410156 18.550781 -22.25 C 17.238281 -23.089844 15.605469 -23.511719 13.644531 -23.511719 C 11.71875 -23.511719 10.179688 -23.144531 9.027344 -22.410156 C 7.871094 -21.675781 7.292969 -20.589844 7.292969 -19.15625 C 7.292969 -17.753906 7.820312 -16.730469 8.867188 -16.085938 C 9.917969 -15.4375 11.351562 -14.957031 13.171875 -14.640625 L 15.585938 -14.222656 C 17.335938 -13.941406 18.910156 -13.53125 20.308594 -12.988281 C 21.707031 -12.445312 22.820312 -11.683594 23.640625 -10.707031 C 24.464844 -9.726562 24.875 -8.433594 24.875 -6.824219 C 24.875 -4.410156 23.964844 -2.546875 22.144531 -1.234375 C 20.328125 0.078125 17.859375 0.734375 14.746094 0.734375 Z M 14.746094 0.734375 "/></g></g></g><g fill="#269b63" fill-opacity="1"><g transform="translate(246.766662, 91.66156)"><g><path d="M 4.617188 10.496094 L 4.617188 -25.503906 L 7.660156 -25.503906 L 7.660156 -20.835938 L 8.292969 -20.835938 C 9.027344 -22.234375 10.171875 -23.484375 11.730469 -24.585938 C 13.285156 -25.6875 15.464844 -26.238281 18.261719 -26.238281 C 20.535156 -26.238281 22.601562 -25.707031 24.457031 -24.640625 C 26.308594 -23.570312 27.789062 -22.058594 28.890625 -20.097656 C 29.992188 -18.140625 30.542969 -15.796875 30.542969 -13.066406 L 30.542969 -12.4375 C 30.542969 -9.742188 30 -7.410156 28.914062 -5.429688 C 27.832031 -3.453125 26.363281 -1.933594 24.507812 -0.867188 C 22.652344 0.199219 20.570312 0.734375 18.261719 0.734375 C 16.410156 0.734375 14.824219 0.480469 13.511719 -0.0273438 C 12.203125 -0.535156 11.132812 -1.191406 10.3125 -1.996094 C 9.488281 -2.800781 8.851562 -3.621094 8.398438 -4.460938 L 7.765625 -4.460938 L 7.765625 10.496094 Z M 17.527344 -2.097656 C 20.433594 -2.097656 22.785156 -3.027344 24.585938 -4.878906 C 26.386719 -6.734375 27.289062 -9.289062 27.289062 -12.542969 L 27.289062 -12.960938 C 27.289062 -16.214844 26.386719 -18.769531 24.585938 -20.625 C 22.785156 -22.480469 20.433594 -23.40625 17.527344 -23.40625 C 14.660156 -23.40625 12.316406 -22.480469 10.496094 -20.625 C 8.675781 -18.769531 7.765625 -16.214844 7.765625 -12.960938 L 7.765625 -12.542969 C 7.765625 -9.289062 8.675781 -6.734375 10.496094 -4.878906 C 12.316406 -3.027344 14.660156 -2.097656 17.527344 -2.097656 Z M 17.527344 -2.097656 "/></g></g></g><g fill="#269b63" fill-opacity="1"><g transform="translate(280.661574, 91.66156)"><g><path d="M 12.4375 0.734375 C 10.652344 0.734375 9.035156 0.429688 7.582031 -0.183594 C 6.132812 -0.796875 4.984375 -1.695312 4.144531 -2.886719 C 3.304688 -4.074219 2.886719 -5.511719 2.886719 -7.191406 C 2.886719 -8.902344 3.304688 -10.320312 4.144531 -11.441406 C 4.984375 -12.558594 6.121094 -13.398438 7.558594 -13.960938 C 8.992188 -14.519531 10.582031 -14.800781 12.332031 -14.800781 L 21.675781 -14.800781 L 21.675781 -16.847656 C 21.675781 -18.910156 21.078125 -20.519531 19.890625 -21.675781 C 18.699219 -22.828125 16.96875 -23.40625 14.695312 -23.40625 C 12.453125 -23.40625 10.679688 -22.855469 9.367188 -21.753906 C 8.054688 -20.652344 7.171875 -19.171875 6.71875 -17.316406 L 3.671875 -18.210938 C 4.09375 -19.714844 4.757812 -21.070312 5.667969 -22.277344 C 6.578125 -23.484375 7.785156 -24.445312 9.289062 -25.164062 C 10.792969 -25.882812 12.59375 -26.238281 14.695312 -26.238281 C 17.914062 -26.238281 20.40625 -25.398438 22.171875 -23.71875 C 23.9375 -22.042969 24.824219 -19.695312 24.824219 -16.6875 L 24.824219 -4.304688 C 24.824219 -3.253906 25.3125 -2.730469 26.292969 -2.730469 L 28.757812 -2.730469 L 28.757812 0 L 25.398438 0 C 24.316406 0 23.457031 -0.324219 22.828125 -0.972656 C 22.199219 -1.617188 21.882812 -2.5 21.882812 -3.621094 L 21.882812 -3.988281 L 21.359375 -3.988281 C 20.902344 -3.21875 20.316406 -2.464844 19.601562 -1.730469 C 18.882812 -0.996094 17.949219 -0.402344 16.792969 0.0507812 C 15.640625 0.507812 14.1875 0.734375 12.4375 0.734375 Z M 12.648438 -2.097656 C 15.339844 -2.097656 17.519531 -2.914062 19.179688 -4.539062 C 20.84375 -6.167969 21.675781 -8.464844 21.675781 -11.441406 L 21.675781 -12.070312 L 12.386719 -12.070312 C 10.566406 -12.070312 9.050781 -11.675781 7.84375 -10.890625 C 6.636719 -10.101562 6.035156 -8.886719 6.035156 -7.242188 C 6.035156 -5.597656 6.65625 -4.328125 7.898438 -3.4375 C 9.140625 -2.546875 10.722656 -2.097656 12.648438 -2.097656 Z M 12.648438 -2.097656 "/></g></g></g><g fill="#269b63" fill-opacity="1"><g transform="translate(310.778726, 91.66156)"><g><path d="M 16.269531 0.734375 C 13.785156 0.734375 11.570312 0.199219 9.628906 -0.867188 C 7.6875 -1.933594 6.15625 -3.464844 5.039062 -5.457031 C 3.917969 -7.453125 3.359375 -9.796875 3.359375 -12.488281 L 3.359375 -13.015625 C 3.359375 -15.742188 3.917969 -18.097656 5.039062 -20.074219 C 6.15625 -22.050781 7.6875 -23.570312 9.628906 -24.640625 C 11.570312 -25.707031 13.785156 -26.238281 16.269531 -26.238281 C 18.71875 -26.238281 20.789062 -25.777344 22.488281 -24.847656 C 24.183594 -23.921875 25.511719 -22.714844 26.476562 -21.226562 C 27.4375 -19.742188 28.042969 -18.175781 28.285156 -16.53125 L 25.191406 -15.902344 C 25.015625 -17.265625 24.578125 -18.515625 23.878906 -19.652344 C 23.179688 -20.789062 22.199219 -21.699219 20.9375 -22.382812 C 19.679688 -23.066406 18.121094 -23.40625 16.269531 -23.40625 C 14.414062 -23.40625 12.753906 -22.976562 11.28125 -22.121094 C 9.8125 -21.261719 8.648438 -20.054688 7.792969 -18.5 C 6.9375 -16.941406 6.507812 -15.097656 6.507812 -12.960938 L 6.507812 -12.542969 C 6.507812 -10.410156 6.9375 -8.5625 7.792969 -7.007812 C 8.648438 -5.449219 9.8125 -4.242188 11.28125 -3.386719 C 12.753906 -2.527344 14.414062 -2.097656 16.269531 -2.097656 C 19.066406 -2.097656 21.203125 -2.824219 22.671875 -4.277344 C 24.140625 -5.730469 25.050781 -7.503906 25.398438 -9.605469 L 28.496094 -8.972656 C 28.179688 -7.328125 27.523438 -5.765625 26.527344 -4.277344 C 25.53125 -2.789062 24.183594 -1.582031 22.488281 -0.65625 C 20.789062 0.269531 18.71875 0.734375 16.269531 0.734375 Z M 16.269531 0.734375 "/></g></g></g><g fill="#269b63" fill-opacity="1"><g transform="translate(342.417483, 91.66156)"><g><path d="M 16.375 0.734375 C 13.75 0.734375 11.464844 0.183594 9.523438 -0.917969 C 7.582031 -2.019531 6.070312 -3.570312 4.984375 -5.5625 C 3.902344 -7.558594 3.359375 -9.847656 3.359375 -12.4375 L 3.359375 -13.066406 C 3.359375 -15.691406 3.902344 -17.992188 4.984375 -19.96875 C 6.070312 -21.945312 7.566406 -23.484375 9.472656 -24.585938 C 11.378906 -25.6875 13.558594 -26.238281 16.007812 -26.238281 C 18.386719 -26.238281 20.492188 -25.742188 22.328125 -24.742188 C 24.167969 -23.746094 25.609375 -22.3125 26.660156 -20.441406 C 27.707031 -18.570312 28.234375 -16.339844 28.234375 -13.75 L 28.234375 -12.070312 L 6.507812 -12.070312 C 6.613281 -8.886719 7.582031 -6.429688 9.421875 -4.695312 C 11.257812 -2.964844 13.574219 -2.097656 16.375 -2.097656 C 18.753906 -2.097656 20.597656 -2.640625 21.910156 -3.726562 C 23.222656 -4.8125 24.226562 -6.140625 24.925781 -7.714844 L 27.761719 -6.453125 C 27.238281 -5.300781 26.511719 -4.171875 25.582031 -3.070312 C 24.65625 -1.96875 23.457031 -1.058594 21.988281 -0.339844 C 20.519531 0.375 18.648438 0.734375 16.375 0.734375 Z M 6.558594 -14.800781 L 25.03125 -14.800781 C 24.894531 -17.5625 24 -19.6875 22.355469 -21.175781 C 20.710938 -22.664062 18.59375 -23.40625 16.007812 -23.40625 C 13.453125 -23.40625 11.335938 -22.664062 9.65625 -21.175781 C 7.976562 -19.6875 6.945312 -17.5625 6.558594 -14.800781 Z M 6.558594 -14.800781 "/></g></g></g><g clip-path="url(#b84e040084)"><g clip-path="url(#e84aff74f6)"><path fill="url(#2d431d73ad)" d="M 1.984375 51.402344 L 1.984375 107.230469 L 57.8125 107.230469 L 57.8125 51.402344 Z M 1.984375 51.402344 " fill-rule="nonzero"/></g></g><g clip-path="url(#aefc37225a)"><path fill="#ffffff" d="M 51.890625 79.28125 C 51.890625 80.007812 51.855469 80.730469 51.785156 81.453125 C 51.714844 82.175781 51.605469 82.894531 51.464844 83.605469 C 51.324219 84.320312 51.148438 85.023438 50.9375 85.714844 C 50.726562 86.410156 50.480469 87.09375 50.203125 87.765625 C 49.925781 88.4375 49.617188 89.089844 49.273438 89.730469 C 48.933594 90.371094 48.558594 90.992188 48.15625 91.597656 C 47.753906 92.199219 47.320312 92.785156 46.859375 93.34375 C 46.398438 93.90625 45.914062 94.441406 45.398438 94.957031 C 44.886719 95.46875 44.347656 95.957031 43.785156 96.417969 C 43.226562 96.878906 42.644531 97.308594 42.039062 97.714844 C 41.4375 98.117188 40.8125 98.488281 40.171875 98.832031 C 39.535156 99.175781 38.878906 99.484375 38.207031 99.761719 C 37.535156 100.039062 36.855469 100.285156 36.160156 100.496094 C 35.464844 100.707031 34.761719 100.882812 34.046875 101.023438 C 33.335938 101.164062 32.621094 101.273438 31.898438 101.34375 C 31.175781 101.414062 30.449219 101.449219 29.722656 101.449219 C 28.996094 101.449219 28.273438 101.414062 27.550781 101.34375 C 26.828125 101.273438 26.109375 101.164062 25.398438 101.023438 C 24.6875 100.882812 23.984375 100.707031 23.289062 100.496094 C 22.59375 100.285156 21.910156 100.039062 21.242188 99.761719 C 20.570312 99.484375 19.914062 99.175781 19.273438 98.832031 C 18.632812 98.488281 18.011719 98.117188 17.40625 97.714844 C 16.804688 97.308594 16.222656 96.878906 15.660156 96.417969 C 15.101562 95.957031 14.5625 95.46875 14.050781 94.957031 C 13.535156 94.441406 13.046875 93.90625 12.589844 93.34375 C 12.128906 92.785156 11.695312 92.199219 11.292969 91.597656 C 10.890625 90.992188 10.515625 90.371094 10.171875 89.730469 C 9.832031 89.089844 9.519531 88.4375 9.242188 87.765625 C 8.964844 87.09375 8.722656 86.410156 8.511719 85.714844 C 8.300781 85.023438 8.125 84.320312 7.980469 83.605469 C 7.839844 82.894531 7.734375 82.175781 7.664062 81.453125 C 7.589844 80.730469 7.554688 80.007812 7.554688 79.28125 C 7.554688 78.554688 7.589844 77.832031 7.664062 77.109375 C 7.734375 76.386719 7.839844 75.667969 7.980469 74.957031 C 8.125 74.246094 8.300781 73.542969 8.511719 72.847656 C 8.722656 72.152344 8.964844 71.46875 9.242188 70.796875 C 9.519531 70.128906 9.832031 69.472656 10.171875 68.832031 C 10.515625 68.191406 10.890625 67.570312 11.292969 66.964844 C 11.695312 66.363281 12.128906 65.78125 12.589844 65.21875 C 13.046875 64.65625 13.535156 64.121094 14.050781 63.605469 C 14.5625 63.09375 15.101562 62.605469 15.660156 62.144531 C 16.222656 61.683594 16.804688 61.253906 17.40625 60.851562 C 18.011719 60.445312 18.632812 60.074219 19.273438 59.730469 C 19.914062 59.390625 20.570312 59.078125 21.242188 58.800781 C 21.910156 58.523438 22.59375 58.28125 23.289062 58.070312 C 23.984375 57.859375 24.6875 57.679688 25.398438 57.539062 C 26.109375 57.398438 26.828125 57.292969 27.550781 57.222656 C 28.273438 57.148438 28.996094 57.113281 29.722656 57.113281 C 30.449219 57.113281 31.175781 57.148438 31.898438 57.222656 C 32.621094 57.292969 33.335938 57.398438 34.046875 57.539062 C 34.761719 57.679688 35.464844 57.859375 36.160156 58.070312 C 36.855469 58.28125 37.535156 58.523438 38.207031 58.800781 C 38.878906 59.078125 39.535156 59.390625 40.171875 59.730469 C 40.8125 60.074219 41.4375 60.445312 42.039062 60.851562 C 42.644531 61.253906 43.226562 61.683594 43.785156 62.144531 C 44.347656 62.605469 44.886719 63.09375 45.398438 63.605469 C 45.914062 64.121094 46.398438 64.65625 46.859375 65.21875 C 47.320312 65.78125 47.753906 66.363281 48.15625 66.964844 C 48.558594 67.570312 48.933594 68.191406 49.273438 68.832031 C 49.617188 69.472656 49.925781 70.128906 50.203125 70.796875 C 50.480469 71.46875 50.726562 72.152344 50.9375 72.847656 C 51.148438 73.542969 51.324219 74.246094 51.464844 74.957031 C 51.605469 75.667969 51.714844 76.386719 51.785156 77.109375 C 51.855469 77.832031 51.890625 78.554688 51.890625 79.28125 Z M 51.890625 79.28125 " fill-opacity="1" fill-rule="nonzero"/></g><g clip-path="url(#ad910c7d6e)"><g clip-path="url(#bc6544a58e)"><g clip-path="url(#6430f2be6f)"><path fill="#ffffff" d="M 44.109375 93.445312 L 47.371094 88.703125 L 55.605469 94.363281 L 52.34375 99.109375 Z M 44.109375 93.445312 " fill-opacity="1" fill-rule="nonzero"/></g></g></g><g clip-path="url(#5e548f6483)"><g clip-path="url(#07e7137e55)"><path fill="url(#89e952463e)" d="M 14.273438 63.832031 L 14.273438 94.800781 L 45.246094 94.800781 L 45.246094 63.832031 Z M 14.273438 63.832031 " fill-rule="nonzero"/></g></g><g fill="#269b63" fill-opacity="1"><g transform="translate(74.80532, 119.331763)"><g><path d="M 6.96875 2.800781 L 6.96875 -1.191406 L 6.800781 -1.191406 C 6.679688 -0.964844 6.511719 -0.746094 6.289062 -0.53125 C 6.070312 -0.316406 5.789062 -0.140625 5.445312 -0.0078125 C 5.097656 0.128906 4.675781 0.195312 4.171875 0.195312 C 3.5625 0.195312 3.011719 0.0546875 2.511719 -0.230469 C 2.011719 -0.515625 1.617188 -0.921875 1.328125 -1.449219 C 1.039062 -1.976562 0.894531 -2.597656 0.894531 -3.316406 L 0.894531 -3.484375 C 0.894531 -4.210938 1.042969 -4.835938 1.335938 -5.359375 C 1.628906 -5.882812 2.023438 -6.285156 2.519531 -6.570312 C 3.011719 -6.855469 3.5625 -6.996094 4.171875 -6.996094 C 4.917969 -6.996094 5.496094 -6.851562 5.914062 -6.558594 C 6.328125 -6.261719 6.632812 -5.929688 6.828125 -5.554688 L 6.996094 -5.554688 L 6.996094 -6.800781 L 7.808594 -6.800781 L 7.808594 2.800781 Z M 4.367188 -0.558594 C 5.140625 -0.558594 5.769531 -0.808594 6.25 -1.300781 C 6.730469 -1.796875 6.96875 -2.476562 6.96875 -3.34375 L 6.96875 -3.457031 C 6.96875 -4.324219 6.730469 -5.003906 6.25 -5.5 C 5.769531 -5.996094 5.140625 -6.242188 4.367188 -6.242188 C 3.601562 -6.242188 2.976562 -5.996094 2.492188 -5.5 C 2.007812 -5.003906 1.761719 -4.324219 1.761719 -3.457031 L 1.761719 -3.34375 C 1.761719 -2.476562 2.007812 -1.796875 2.492188 -1.300781 C 2.976562 -0.808594 3.601562 -0.558594 4.367188 -0.558594 Z M 4.367188 -0.558594 "/></g></g></g><g fill="#269b63" fill-opacity="1"><g transform="translate(83.844276, 119.331763)"><g><path d="M 3.847656 0.140625 C 3.363281 0.140625 2.914062 0.0390625 2.5 -0.167969 C 2.082031 -0.375 1.75 -0.683594 1.503906 -1.097656 C 1.257812 -1.515625 1.132812 -2.035156 1.132812 -2.660156 L 1.132812 -6.800781 L 1.972656 -6.800781 L 1.972656 -2.714844 C 1.972656 -1.976562 2.160156 -1.445312 2.53125 -1.113281 C 2.90625 -0.78125 3.40625 -0.617188 4.03125 -0.617188 C 4.730469 -0.617188 5.3125 -0.847656 5.78125 -1.308594 C 6.246094 -1.769531 6.480469 -2.46875 6.480469 -3.402344 L 6.480469 -6.800781 L 7.320312 -6.800781 L 7.320312 0 L 6.507812 0 L 6.507812 -1.257812 L 6.339844 -1.257812 C 6.171875 -0.894531 5.898438 -0.570312 5.515625 -0.285156 C 5.132812 -0.00390625 4.578125 0.140625 3.847656 0.140625 Z M 3.847656 0.140625 "/></g></g></g><g fill="#269b63" fill-opacity="1"><g transform="translate(92.393504, 119.331763)"><g><path d="M 3.316406 0.195312 C 2.839844 0.195312 2.410156 0.113281 2.023438 -0.0507812 C 1.636719 -0.210938 1.328125 -0.453125 1.105469 -0.769531 C 0.882812 -1.085938 0.769531 -1.46875 0.769531 -1.917969 C 0.769531 -2.375 0.882812 -2.753906 1.105469 -3.050781 C 1.328125 -3.347656 1.632812 -3.574219 2.015625 -3.722656 C 2.398438 -3.871094 2.824219 -3.945312 3.289062 -3.945312 L 5.78125 -3.945312 L 5.78125 -4.492188 C 5.78125 -5.042969 5.621094 -5.472656 5.304688 -5.78125 C 4.988281 -6.085938 4.523438 -6.242188 3.917969 -6.242188 C 3.320312 -6.242188 2.847656 -6.09375 2.5 -5.800781 C 2.148438 -5.507812 1.914062 -5.113281 1.792969 -4.617188 L 0.980469 -4.855469 C 1.089844 -5.257812 1.269531 -5.617188 1.511719 -5.941406 C 1.753906 -6.261719 2.074219 -6.519531 2.476562 -6.710938 C 2.878906 -6.902344 3.359375 -6.996094 3.917969 -6.996094 C 4.777344 -6.996094 5.441406 -6.773438 5.914062 -6.324219 C 6.382812 -5.878906 6.621094 -5.253906 6.621094 -4.449219 L 6.621094 -1.148438 C 6.621094 -0.867188 6.75 -0.726562 7.011719 -0.726562 L 7.667969 -0.726562 L 7.667969 0 L 6.773438 0 C 6.484375 0 6.253906 -0.0859375 6.085938 -0.257812 C 5.917969 -0.429688 5.835938 -0.667969 5.835938 -0.964844 L 5.835938 -1.0625 L 5.695312 -1.0625 C 5.574219 -0.859375 5.417969 -0.65625 5.226562 -0.460938 C 5.035156 -0.265625 4.785156 -0.105469 4.476562 0.015625 C 4.171875 0.136719 3.785156 0.195312 3.316406 0.195312 Z M 3.371094 -0.558594 C 4.089844 -0.558594 4.671875 -0.777344 5.113281 -1.210938 C 5.558594 -1.644531 5.78125 -2.257812 5.78125 -3.050781 L 5.78125 -3.21875 L 3.304688 -3.21875 C 2.816406 -3.21875 2.414062 -3.113281 2.09375 -2.902344 C 1.769531 -2.695312 1.609375 -2.371094 1.609375 -1.929688 C 1.609375 -1.492188 1.773438 -1.15625 2.105469 -0.917969 C 2.4375 -0.679688 2.859375 -0.558594 3.371094 -0.558594 Z M 3.371094 -0.558594 "/></g></g></g><g fill="#269b63" fill-opacity="1"><g transform="translate(100.425024, 119.331763)"><g><path d="M 1.230469 0 L 1.230469 -6.800781 L 2.042969 -6.800781 L 2.042969 -5.542969 L 2.210938 -5.542969 C 2.378906 -5.90625 2.65625 -6.230469 3.035156 -6.515625 C 3.417969 -6.800781 3.972656 -6.941406 4.703125 -6.941406 C 5.195312 -6.941406 5.648438 -6.839844 6.058594 -6.632812 C 6.46875 -6.429688 6.800781 -6.117188 7.046875 -5.703125 C 7.292969 -5.289062 7.417969 -4.769531 7.417969 -4.140625 L 7.417969 0 L 6.578125 0 L 6.578125 -4.085938 C 6.578125 -4.832031 6.390625 -5.371094 6.019531 -5.695312 C 5.644531 -6.023438 5.144531 -6.1875 4.519531 -6.1875 C 3.820312 -6.1875 3.238281 -5.953125 2.769531 -5.492188 C 2.304688 -5.03125 2.070312 -4.332031 2.070312 -3.402344 L 2.070312 0 Z M 1.230469 0 "/></g></g></g><g fill="#269b63" fill-opacity="1"><g transform="translate(108.988248, 119.331763)"><g><path d="M 3.695312 0 C 3.332031 0 3.058594 -0.09375 2.875 -0.28125 C 2.695312 -0.464844 2.601562 -0.726562 2.601562 -1.0625 L 2.601562 -6.046875 L 0.417969 -6.046875 L 0.417969 -6.800781 L 2.601562 -6.800781 L 2.601562 -9.347656 L 3.441406 -9.347656 L 3.441406 -6.800781 L 5.820312 -6.800781 L 5.820312 -6.046875 L 3.441406 -6.046875 L 3.441406 -1.175781 C 3.441406 -0.894531 3.582031 -0.753906 3.863281 -0.753906 L 5.457031 -0.753906 L 5.457031 0 Z M 3.695312 0 "/></g></g></g><g fill="#269b63" fill-opacity="1"><g transform="translate(115.452638, 119.331763)"><g><path d="M 1.230469 0 L 1.230469 -6.800781 L 2.070312 -6.800781 L 2.070312 0 Z M 1.652344 -7.976562 C 1.445312 -7.976562 1.273438 -8.046875 1.132812 -8.1875 C 0.992188 -8.328125 0.921875 -8.5 0.921875 -8.703125 C 0.921875 -8.917969 0.992188 -9.09375 1.132812 -9.230469 C 1.273438 -9.363281 1.445312 -9.433594 1.652344 -9.433594 C 1.867188 -9.433594 2.039062 -9.363281 2.175781 -9.230469 C 2.3125 -9.09375 2.378906 -8.917969 2.378906 -8.703125 C 2.378906 -8.5 2.3125 -8.328125 2.175781 -8.1875 C 2.039062 -8.046875 1.867188 -7.976562 1.652344 -7.976562 Z M 1.652344 -7.976562 "/></g></g></g><g fill="#269b63" fill-opacity="1"><g transform="translate(118.754796, 119.331763)"><g><path d="M 3.695312 0 C 3.332031 0 3.058594 -0.09375 2.875 -0.28125 C 2.695312 -0.464844 2.601562 -0.726562 2.601562 -1.0625 L 2.601562 -6.046875 L 0.417969 -6.046875 L 0.417969 -6.800781 L 2.601562 -6.800781 L 2.601562 -9.347656 L 3.441406 -9.347656 L 3.441406 -6.800781 L 5.820312 -6.800781 L 5.820312 -6.046875 L 3.441406 -6.046875 L 3.441406 -1.175781 C 3.441406 -0.894531 3.582031 -0.753906 3.863281 -0.753906 L 5.457031 -0.753906 L 5.457031 0 Z M 3.695312 0 "/></g></g></g><g fill="#269b63" fill-opacity="1"><g transform="translate(125.219185, 119.331763)"><g><path d="M 3.316406 0.195312 C 2.839844 0.195312 2.410156 0.113281 2.023438 -0.0507812 C 1.636719 -0.210938 1.328125 -0.453125 1.105469 -0.769531 C 0.882812 -1.085938 0.769531 -1.46875 0.769531 -1.917969 C 0.769531 -2.375 0.882812 -2.753906 1.105469 -3.050781 C 1.328125 -3.347656 1.632812 -3.574219 2.015625 -3.722656 C 2.398438 -3.871094 2.824219 -3.945312 3.289062 -3.945312 L 5.78125 -3.945312 L 5.78125 -4.492188 C 5.78125 -5.042969 5.621094 -5.472656 5.304688 -5.78125 C 4.988281 -6.085938 4.523438 -6.242188 3.917969 -6.242188 C 3.320312 -6.242188 2.847656 -6.09375 2.5 -5.800781 C 2.148438 -5.507812 1.914062 -5.113281 1.792969 -4.617188 L 0.980469 -4.855469 C 1.089844 -5.257812 1.269531 -5.617188 1.511719 -5.941406 C 1.753906 -6.261719 2.074219 -6.519531 2.476562 -6.710938 C 2.878906 -6.902344 3.359375 -6.996094 3.917969 -6.996094 C 4.777344 -6.996094 5.441406 -6.773438 5.914062 -6.324219 C 6.382812 -5.878906 6.621094 -5.253906 6.621094 -4.449219 L 6.621094 -1.148438 C 6.621094 -0.867188 6.75 -0.726562 7.011719 -0.726562 L 7.667969 -0.726562 L 7.667969 0 L 6.773438 0 C 6.484375 0 6.253906 -0.0859375 6.085938 -0.257812 C 5.917969 -0.429688 5.835938 -0.667969 5.835938 -0.964844 L 5.835938 -1.0625 L 5.695312 -1.0625 C 5.574219 -0.859375 5.417969 -0.65625 5.226562 -0.460938 C 5.035156 -0.265625 4.785156 -0.105469 4.476562 0.015625 C 4.171875 0.136719 3.785156 0.195312 3.316406 0.195312 Z M 3.371094 -0.558594 C 4.089844 -0.558594 4.671875 -0.777344 5.113281 -1.210938 C 5.558594 -1.644531 5.78125 -2.257812 5.78125 -3.050781 L 5.78125 -3.21875 L 3.304688 -3.21875 C 2.816406 -3.21875 2.414062 -3.113281 2.09375 -2.902344 C 1.769531 -2.695312 1.609375 -2.371094 1.609375 -1.929688 C 1.609375 -1.492188 1.773438 -1.15625 2.105469 -0.917969 C 2.4375 -0.679688 2.859375 -0.558594 3.371094 -0.558594 Z M 3.371094 -0.558594 "/></g></g></g><g fill="#269b63" fill-opacity="1"><g transform="translate(133.250706, 119.331763)"><g><path d="M 3.695312 0 C 3.332031 0 3.058594 -0.09375 2.875 -0.28125 C 2.695312 -0.464844 2.601562 -0.726562 2.601562 -1.0625 L 2.601562 -6.046875 L 0.417969 -6.046875 L 0.417969 -6.800781 L 2.601562 -6.800781 L 2.601562 -9.347656 L 3.441406 -9.347656 L 3.441406 -6.800781 L 5.820312 -6.800781 L 5.820312 -6.046875 L 3.441406 -6.046875 L 3.441406 -1.175781 C 3.441406 -0.894531 3.582031 -0.753906 3.863281 -0.753906 L 5.457031 -0.753906 L 5.457031 0 Z M 3.695312 0 "/></g></g></g><g fill="#269b63" fill-opacity="1"><g transform="translate(139.715095, 119.331763)"><g><path d="M 1.230469 0 L 1.230469 -6.800781 L 2.070312 -6.800781 L 2.070312 0 Z M 1.652344 -7.976562 C 1.445312 -7.976562 1.273438 -8.046875 1.132812 -8.1875 C 0.992188 -8.328125 0.921875 -8.5 0.921875 -8.703125 C 0.921875 -8.917969 0.992188 -9.09375 1.132812 -9.230469 C 1.273438 -9.363281 1.445312 -9.433594 1.652344 -9.433594 C 1.867188 -9.433594 2.039062 -9.363281 2.175781 -9.230469 C 2.3125 -9.09375 2.378906 -8.917969 2.378906 -8.703125 C 2.378906 -8.5 2.3125 -8.328125 2.175781 -8.1875 C 2.039062 -8.046875 1.867188 -7.976562 1.652344 -7.976562 Z M 1.652344 -7.976562 "/></g></g></g><g fill="#269b63" fill-opacity="1"><g transform="translate(143.017253, 119.331763)"><g><path d="M 3.078125 0 L 0.53125 -6.800781 L 1.425781 -6.800781 L 3.667969 -0.644531 L 3.835938 -0.644531 L 6.074219 -6.800781 L 6.96875 -6.800781 L 4.421875 0 Z M 3.078125 0 "/></g></g></g><g fill="#269b63" fill-opacity="1"><g transform="translate(150.51707, 119.331763)"><g><path d="M 4.367188 0.195312 C 3.667969 0.195312 3.058594 0.0507812 2.539062 -0.246094 C 2.023438 -0.539062 1.617188 -0.953125 1.328125 -1.484375 C 1.039062 -2.015625 0.894531 -2.625 0.894531 -3.316406 L 0.894531 -3.484375 C 0.894531 -4.183594 1.039062 -4.796875 1.328125 -5.324219 C 1.617188 -5.851562 2.019531 -6.261719 2.527344 -6.558594 C 3.035156 -6.851562 3.617188 -6.996094 4.269531 -6.996094 C 4.902344 -6.996094 5.464844 -6.863281 5.953125 -6.597656 C 6.445312 -6.332031 6.828125 -5.949219 7.109375 -5.449219 C 7.390625 -4.953125 7.53125 -4.355469 7.53125 -3.667969 L 7.53125 -3.21875 L 1.734375 -3.21875 C 1.761719 -2.371094 2.023438 -1.714844 2.511719 -1.253906 C 3 -0.789062 3.621094 -0.558594 4.367188 -0.558594 C 5 -0.558594 5.492188 -0.703125 5.84375 -0.992188 C 6.191406 -1.28125 6.460938 -1.636719 6.648438 -2.058594 L 7.402344 -1.722656 C 7.261719 -1.414062 7.070312 -1.113281 6.824219 -0.820312 C 6.574219 -0.523438 6.253906 -0.28125 5.863281 -0.0898438 C 5.472656 0.101562 4.972656 0.195312 4.367188 0.195312 Z M 1.75 -3.945312 L 6.675781 -3.945312 C 6.636719 -4.683594 6.398438 -5.25 5.960938 -5.648438 C 5.523438 -6.042969 4.957031 -6.242188 4.269531 -6.242188 C 3.585938 -6.242188 3.023438 -6.042969 2.574219 -5.648438 C 2.128906 -5.25 1.851562 -4.683594 1.75 -3.945312 Z M 1.75 -3.945312 "/></g></g></g><g fill="#269b63" fill-opacity="1"><g transform="translate(158.884394, 119.331763)"><g/></g></g><g fill="#269b63" fill-opacity="1"><g transform="translate(162.494376, 119.331763)"><g><path d="M 2.660156 0 L 2.660156 -6.046875 L 0.417969 -6.046875 L 0.417969 -6.800781 L 2.660156 -6.800781 L 2.660156 -8.734375 C 2.660156 -9.070312 2.75 -9.328125 2.933594 -9.515625 C 3.113281 -9.703125 3.386719 -9.796875 3.75 -9.796875 L 5.429688 -9.796875 L 5.429688 -9.039062 L 3.917969 -9.039062 C 3.640625 -9.039062 3.5 -8.902344 3.5 -8.621094 L 3.5 -6.800781 L 5.792969 -6.800781 L 5.792969 -6.046875 L 3.5 -6.046875 L 3.5 0 Z M 2.660156 0 "/></g></g></g><g fill="#269b63" fill-opacity="1"><g transform="translate(168.706903, 119.331763)"><g><path d="M 1.230469 0 L 1.230469 -6.800781 L 2.070312 -6.800781 L 2.070312 0 Z M 1.652344 -7.976562 C 1.445312 -7.976562 1.273438 -8.046875 1.132812 -8.1875 C 0.992188 -8.328125 0.921875 -8.5 0.921875 -8.703125 C 0.921875 -8.917969 0.992188 -9.09375 1.132812 -9.230469 C 1.273438 -9.363281 1.445312 -9.433594 1.652344 -9.433594 C 1.867188 -9.433594 2.039062 -9.363281 2.175781 -9.230469 C 2.3125 -9.09375 2.378906 -8.917969 2.378906 -8.703125 C 2.378906 -8.5 2.3125 -8.328125 2.175781 -8.1875 C 2.039062 -8.046875 1.867188 -7.976562 1.652344 -7.976562 Z M 1.652344 -7.976562 "/></g></g></g><g fill="#269b63" fill-opacity="1"><g transform="translate(172.009062, 119.331763)"><g><path d="M 1.230469 0 L 1.230469 -6.800781 L 2.042969 -6.800781 L 2.042969 -5.542969 L 2.210938 -5.542969 C 2.378906 -5.90625 2.65625 -6.230469 3.035156 -6.515625 C 3.417969 -6.800781 3.972656 -6.941406 4.703125 -6.941406 C 5.195312 -6.941406 5.648438 -6.839844 6.058594 -6.632812 C 6.46875 -6.429688 6.800781 -6.117188 7.046875 -5.703125 C 7.292969 -5.289062 7.417969 -4.769531 7.417969 -4.140625 L 7.417969 0 L 6.578125 0 L 6.578125 -4.085938 C 6.578125 -4.832031 6.390625 -5.371094 6.019531 -5.695312 C 5.644531 -6.023438 5.144531 -6.1875 4.519531 -6.1875 C 3.820312 -6.1875 3.238281 -5.953125 2.769531 -5.492188 C 2.304688 -5.03125 2.070312 -4.332031 2.070312 -3.402344 L 2.070312 0 Z M 1.230469 0 "/></g></g></g><g fill="#269b63" fill-opacity="1"><g transform="translate(180.572286, 119.331763)"><g><path d="M 3.316406 0.195312 C 2.839844 0.195312 2.410156 0.113281 2.023438 -0.0507812 C 1.636719 -0.210938 1.328125 -0.453125 1.105469 -0.769531 C 0.882812 -1.085938 0.769531 -1.46875 0.769531 -1.917969 C 0.769531 -2.375 0.882812 -2.753906 1.105469 -3.050781 C 1.328125 -3.347656 1.632812 -3.574219 2.015625 -3.722656 C 2.398438 -3.871094 2.824219 -3.945312 3.289062 -3.945312 L 5.78125 -3.945312 L 5.78125 -4.492188 C 5.78125 -5.042969 5.621094 -5.472656 5.304688 -5.78125 C 4.988281 -6.085938 4.523438 -6.242188 3.917969 -6.242188 C 3.320312 -6.242188 2.847656 -6.09375 2.5 -5.800781 C 2.148438 -5.507812 1.914062 -5.113281 1.792969 -4.617188 L 0.980469 -4.855469 C 1.089844 -5.257812 1.269531 -5.617188 1.511719 -5.941406 C 1.753906 -6.261719 2.074219 -6.519531 2.476562 -6.710938 C 2.878906 -6.902344 3.359375 -6.996094 3.917969 -6.996094 C 4.777344 -6.996094 5.441406 -6.773438 5.914062 -6.324219 C 6.382812 -5.878906 6.621094 -5.253906 6.621094 -4.449219 L 6.621094 -1.148438 C 6.621094 -0.867188 6.75 -0.726562 7.011719 -0.726562 L 7.667969 -0.726562 L 7.667969 0 L 6.773438 0 C 6.484375 0 6.253906 -0.0859375 6.085938 -0.257812 C 5.917969 -0.429688 5.835938 -0.667969 5.835938 -0.964844 L 5.835938 -1.0625 L 5.695312 -1.0625 C 5.574219 -0.859375 5.417969 -0.65625 5.226562 -0.460938 C 5.035156 -0.265625 4.785156 -0.105469 4.476562 0.015625 C 4.171875 0.136719 3.785156 0.195312 3.316406 0.195312 Z M 3.371094 -0.558594 C 4.089844 -0.558594 4.671875 -0.777344 5.113281 -1.210938 C 5.558594 -1.644531 5.78125 -2.257812 5.78125 -3.050781 L 5.78125 -3.21875 L 3.304688 -3.21875 C 2.816406 -3.21875 2.414062 -3.113281 2.09375 -2.902344 C 1.769531 -2.695312 1.609375 -2.371094 1.609375 -1.929688 C 1.609375 -1.492188 1.773438 -1.15625 2.105469 -0.917969 C 2.4375 -0.679688 2.859375 -0.558594 3.371094 -0.558594 Z M 3.371094 -0.558594 "/></g></g></g><g fill="#269b63" fill-opacity="1"><g transform="translate(188.603806, 119.331763)"><g><path d="M 1.230469 0 L 1.230469 -6.800781 L 2.042969 -6.800781 L 2.042969 -5.542969 L 2.210938 -5.542969 C 2.378906 -5.90625 2.65625 -6.230469 3.035156 -6.515625 C 3.417969 -6.800781 3.972656 -6.941406 4.703125 -6.941406 C 5.195312 -6.941406 5.648438 -6.839844 6.058594 -6.632812 C 6.46875 -6.429688 6.800781 -6.117188 7.046875 -5.703125 C 7.292969 -5.289062 7.417969 -4.769531 7.417969 -4.140625 L 7.417969 0 L 6.578125 0 L 6.578125 -4.085938 C 6.578125 -4.832031 6.390625 -5.371094 6.019531 -5.695312 C 5.644531 -6.023438 5.144531 -6.1875 4.519531 -6.1875 C 3.820312 -6.1875 3.238281 -5.953125 2.769531 -5.492188 C 2.304688 -5.03125 2.070312 -4.332031 2.070312 -3.402344 L 2.070312 0 Z M 1.230469 0 "/></g></g></g><g fill="#269b63" fill-opacity="1"><g transform="translate(197.167031, 119.331763)"><g><path d="M 4.339844 0.195312 C 3.675781 0.195312 3.085938 0.0546875 2.566406 -0.230469 C 2.050781 -0.515625 1.640625 -0.921875 1.34375 -1.457031 C 1.046875 -1.988281 0.894531 -2.613281 0.894531 -3.332031 L 0.894531 -3.472656 C 0.894531 -4.199219 1.046875 -4.824219 1.34375 -5.351562 C 1.640625 -5.878906 2.050781 -6.285156 2.566406 -6.570312 C 3.085938 -6.855469 3.675781 -6.996094 4.339844 -6.996094 C 4.992188 -6.996094 5.542969 -6.875 5.996094 -6.625 C 6.449219 -6.378906 6.804688 -6.058594 7.058594 -5.660156 C 7.316406 -5.265625 7.476562 -4.847656 7.542969 -4.410156 L 6.71875 -4.242188 C 6.671875 -4.605469 6.554688 -4.9375 6.367188 -5.242188 C 6.179688 -5.542969 5.917969 -5.785156 5.585938 -5.96875 C 5.25 -6.152344 4.832031 -6.242188 4.339844 -6.242188 C 3.84375 -6.242188 3.402344 -6.128906 3.007812 -5.898438 C 2.617188 -5.671875 2.308594 -5.347656 2.078125 -4.933594 C 1.851562 -4.519531 1.734375 -4.027344 1.734375 -3.457031 L 1.734375 -3.34375 C 1.734375 -2.777344 1.851562 -2.285156 2.078125 -1.867188 C 2.308594 -1.453125 2.617188 -1.132812 3.007812 -0.902344 C 3.402344 -0.675781 3.84375 -0.558594 4.339844 -0.558594 C 5.085938 -0.558594 5.652344 -0.753906 6.046875 -1.140625 C 6.4375 -1.527344 6.679688 -2 6.773438 -2.5625 L 7.597656 -2.394531 C 7.515625 -1.953125 7.339844 -1.539062 7.074219 -1.140625 C 6.808594 -0.742188 6.449219 -0.421875 5.996094 -0.175781 C 5.542969 0.0742188 4.992188 0.195312 4.339844 0.195312 Z M 4.339844 0.195312 "/></g></g></g><g fill="#269b63" fill-opacity="1"><g transform="translate(205.604324, 119.331763)"><g><path d="M 4.367188 0.195312 C 3.667969 0.195312 3.058594 0.0507812 2.539062 -0.246094 C 2.023438 -0.539062 1.617188 -0.953125 1.328125 -1.484375 C 1.039062 -2.015625 0.894531 -2.625 0.894531 -3.316406 L 0.894531 -3.484375 C 0.894531 -4.183594 1.039062 -4.796875 1.328125 -5.324219 C 1.617188 -5.851562 2.019531 -6.261719 2.527344 -6.558594 C 3.035156 -6.851562 3.617188 -6.996094 4.269531 -6.996094 C 4.902344 -6.996094 5.464844 -6.863281 5.953125 -6.597656 C 6.445312 -6.332031 6.828125 -5.949219 7.109375 -5.449219 C 7.390625 -4.953125 7.53125 -4.355469 7.53125 -3.667969 L 7.53125 -3.21875 L 1.734375 -3.21875 C 1.761719 -2.371094 2.023438 -1.714844 2.511719 -1.253906 C 3 -0.789062 3.621094 -0.558594 4.367188 -0.558594 C 5 -0.558594 5.492188 -0.703125 5.84375 -0.992188 C 6.191406 -1.28125 6.460938 -1.636719 6.648438 -2.058594 L 7.402344 -1.722656 C 7.261719 -1.414062 7.070312 -1.113281 6.824219 -0.820312 C 6.574219 -0.523438 6.253906 -0.28125 5.863281 -0.0898438 C 5.472656 0.101562 4.972656 0.195312 4.367188 0.195312 Z M 1.75 -3.945312 L 6.675781 -3.945312 C 6.636719 -4.683594 6.398438 -5.25 5.960938 -5.648438 C 5.523438 -6.042969 4.957031 -6.242188 4.269531 -6.242188 C 3.585938 -6.242188 3.023438 -6.042969 2.574219 -5.648438 C 2.128906 -5.25 1.851562 -4.683594 1.75 -3.945312 Z M 1.75 -3.945312 "/></g></g></g><g fill="#269b63" fill-opacity="1"><g transform="translate(213.971648, 119.331763)"><g/></g></g><g fill="#269b63" fill-opacity="1"><g transform="translate(217.58163, 119.331763)"><g><path d="M 3.933594 0.195312 C 3.113281 0.195312 2.410156 0 1.828125 -0.390625 C 1.242188 -0.785156 0.886719 -1.433594 0.753906 -2.335938 L 1.582031 -2.492188 C 1.65625 -1.996094 1.808594 -1.605469 2.035156 -1.324219 C 2.265625 -1.039062 2.542969 -0.835938 2.875 -0.714844 C 3.207031 -0.59375 3.558594 -0.53125 3.933594 -0.53125 C 4.492188 -0.53125 4.941406 -0.644531 5.28125 -0.875 C 5.625 -1.101562 5.792969 -1.417969 5.792969 -1.820312 C 5.792969 -2.230469 5.632812 -2.515625 5.3125 -2.671875 C 4.988281 -2.832031 4.5625 -2.957031 4.03125 -3.050781 L 3.386719 -3.164062 C 2.957031 -3.238281 2.570312 -3.351562 2.226562 -3.503906 C 1.878906 -3.660156 1.605469 -3.867188 1.40625 -4.128906 C 1.207031 -4.390625 1.105469 -4.714844 1.105469 -5.109375 C 1.105469 -5.695312 1.335938 -6.15625 1.796875 -6.492188 C 2.261719 -6.828125 2.875 -6.996094 3.640625 -6.996094 C 4.414062 -6.996094 5.035156 -6.824219 5.507812 -6.472656 C 5.976562 -6.121094 6.273438 -5.617188 6.394531 -4.953125 L 5.613281 -4.785156 C 5.519531 -5.328125 5.296875 -5.710938 4.945312 -5.933594 C 4.597656 -6.15625 4.160156 -6.269531 3.640625 -6.269531 C 3.125 -6.269531 2.714844 -6.171875 2.40625 -5.976562 C 2.097656 -5.78125 1.945312 -5.492188 1.945312 -5.109375 C 1.945312 -4.734375 2.085938 -4.460938 2.363281 -4.289062 C 2.644531 -4.117188 3.027344 -3.988281 3.511719 -3.90625 L 4.15625 -3.792969 C 4.621094 -3.71875 5.042969 -3.609375 5.417969 -3.464844 C 5.789062 -3.320312 6.085938 -3.117188 6.304688 -2.855469 C 6.523438 -2.59375 6.632812 -2.25 6.632812 -1.820312 C 6.632812 -1.175781 6.390625 -0.679688 5.90625 -0.328125 C 5.421875 0.0195312 4.761719 0.195312 3.933594 0.195312 Z M 3.933594 0.195312 "/></g></g></g><g fill="#269b63" fill-opacity="1"><g transform="translate(224.969512, 119.331763)"><g><path d="M 4.339844 0.195312 C 3.648438 0.195312 3.042969 0.0507812 2.527344 -0.246094 C 2.007812 -0.539062 1.605469 -0.949219 1.324219 -1.476562 C 1.039062 -2.003906 0.894531 -2.617188 0.894531 -3.316406 L 0.894531 -3.484375 C 0.894531 -4.183594 1.039062 -4.796875 1.324219 -5.324219 C 1.605469 -5.851562 2.007812 -6.261719 2.527344 -6.558594 C 3.042969 -6.851562 3.648438 -6.996094 4.339844 -6.996094 C 5.027344 -6.996094 5.632812 -6.851562 6.152344 -6.558594 C 6.667969 -6.261719 7.070312 -5.851562 7.355469 -5.324219 C 7.640625 -4.796875 7.78125 -4.183594 7.78125 -3.484375 L 7.78125 -3.316406 C 7.78125 -2.617188 7.640625 -2.003906 7.355469 -1.476562 C 7.070312 -0.949219 6.667969 -0.539062 6.152344 -0.246094 C 5.632812 0.0507812 5.027344 0.195312 4.339844 0.195312 Z M 4.339844 -0.558594 C 5.140625 -0.558594 5.773438 -0.8125 6.242188 -1.324219 C 6.707031 -1.832031 6.941406 -2.503906 6.941406 -3.34375 L 6.941406 -3.457031 C 6.941406 -4.296875 6.707031 -4.96875 6.242188 -5.480469 C 5.773438 -5.988281 5.140625 -6.242188 4.339844 -6.242188 C 3.546875 -6.242188 2.914062 -5.988281 2.441406 -5.480469 C 1.972656 -4.96875 1.734375 -4.296875 1.734375 -3.457031 L 1.734375 -3.34375 C 1.734375 -2.503906 1.972656 -1.832031 2.441406 -1.324219 C 2.914062 -0.8125 3.546875 -0.558594 4.339844 -0.558594 Z M 4.339844 -0.558594 "/></g></g></g><g fill="#269b63" fill-opacity="1"><g transform="translate(233.644671, 119.331763)"><g><path d="M 1.230469 -9.796875 L 2.070312 -9.796875 L 2.070312 0 L 1.230469 0 Z M 1.230469 -9.796875 "/></g></g></g><g fill="#269b63" fill-opacity="1"><g transform="translate(236.946829, 119.331763)"><g><path d="M 3.847656 0.140625 C 3.363281 0.140625 2.914062 0.0390625 2.5 -0.167969 C 2.082031 -0.375 1.75 -0.683594 1.503906 -1.097656 C 1.257812 -1.515625 1.132812 -2.035156 1.132812 -2.660156 L 1.132812 -6.800781 L 1.972656 -6.800781 L 1.972656 -2.714844 C 1.972656 -1.976562 2.160156 -1.445312 2.53125 -1.113281 C 2.90625 -0.78125 3.40625 -0.617188 4.03125 -0.617188 C 4.730469 -0.617188 5.3125 -0.847656 5.78125 -1.308594 C 6.246094 -1.769531 6.480469 -2.46875 6.480469 -3.402344 L 6.480469 -6.800781 L 7.320312 -6.800781 L 7.320312 0 L 6.507812 0 L 6.507812 -1.257812 L 6.339844 -1.257812 C 6.171875 -0.894531 5.898438 -0.570312 5.515625 -0.285156 C 5.132812 -0.00390625 4.578125 0.140625 3.847656 0.140625 Z M 3.847656 0.140625 "/></g></g></g><g fill="#269b63" fill-opacity="1"><g transform="translate(245.496057, 119.331763)"><g><path d="M 3.695312 0 C 3.332031 0 3.058594 -0.09375 2.875 -0.28125 C 2.695312 -0.464844 2.601562 -0.726562 2.601562 -1.0625 L 2.601562 -6.046875 L 0.417969 -6.046875 L 0.417969 -6.800781 L 2.601562 -6.800781 L 2.601562 -9.347656 L 3.441406 -9.347656 L 3.441406 -6.800781 L 5.820312 -6.800781 L 5.820312 -6.046875 L 3.441406 -6.046875 L 3.441406 -1.175781 C 3.441406 -0.894531 3.582031 -0.753906 3.863281 -0.753906 L 5.457031 -0.753906 L 5.457031 0 Z M 3.695312 0 "/></g></g></g><g fill="#269b63" fill-opacity="1"><g transform="translate(251.960446, 119.331763)"><g><path d="M 1.230469 0 L 1.230469 -6.800781 L 2.070312 -6.800781 L 2.070312 0 Z M 1.652344 -7.976562 C 1.445312 -7.976562 1.273438 -8.046875 1.132812 -8.1875 C 0.992188 -8.328125 0.921875 -8.5 0.921875 -8.703125 C 0.921875 -8.917969 0.992188 -9.09375 1.132812 -9.230469 C 1.273438 -9.363281 1.445312 -9.433594 1.652344 -9.433594 C 1.867188 -9.433594 2.039062 -9.363281 2.175781 -9.230469 C 2.3125 -9.09375 2.378906 -8.917969 2.378906 -8.703125 C 2.378906 -8.5 2.3125 -8.328125 2.175781 -8.1875 C 2.039062 -8.046875 1.867188 -7.976562 1.652344 -7.976562 Z M 1.652344 -7.976562 "/></g></g></g><g fill="#269b63" fill-opacity="1"><g transform="translate(255.262604, 119.331763)"><g><path d="M 4.339844 0.195312 C 3.648438 0.195312 3.042969 0.0507812 2.527344 -0.246094 C 2.007812 -0.539062 1.605469 -0.949219 1.324219 -1.476562 C 1.039062 -2.003906 0.894531 -2.617188 0.894531 -3.316406 L 0.894531 -3.484375 C 0.894531 -4.183594 1.039062 -4.796875 1.324219 -5.324219 C 1.605469 -5.851562 2.007812 -6.261719 2.527344 -6.558594 C 3.042969 -6.851562 3.648438 -6.996094 4.339844 -6.996094 C 5.027344 -6.996094 5.632812 -6.851562 6.152344 -6.558594 C 6.667969 -6.261719 7.070312 -5.851562 7.355469 -5.324219 C 7.640625 -4.796875 7.78125 -4.183594 7.78125 -3.484375 L 7.78125 -3.316406 C 7.78125 -2.617188 7.640625 -2.003906 7.355469 -1.476562 C 7.070312 -0.949219 6.667969 -0.539062 6.152344 -0.246094 C 5.632812 0.0507812 5.027344 0.195312 4.339844 0.195312 Z M 4.339844 -0.558594 C 5.140625 -0.558594 5.773438 -0.8125 6.242188 -1.324219 C 6.707031 -1.832031 6.941406 -2.503906 6.941406 -3.34375 L 6.941406 -3.457031 C 6.941406 -4.296875 6.707031 -4.96875 6.242188 -5.480469 C 5.773438 -5.988281 5.140625 -6.242188 4.339844 -6.242188 C 3.546875 -6.242188 2.914062 -5.988281 2.441406 -5.480469 C 1.972656 -4.96875 1.734375 -4.296875 1.734375 -3.457031 L 1.734375 -3.34375 C 1.734375 -2.503906 1.972656 -1.832031 2.441406 -1.324219 C 2.914062 -0.8125 3.546875 -0.558594 4.339844 -0.558594 Z M 4.339844 -0.558594 "/></g></g></g><g fill="#269b63" fill-opacity="1"><g transform="translate(263.937763, 119.331763)"><g><path d="M 1.230469 0 L 1.230469 -6.800781 L 2.042969 -6.800781 L 2.042969 -5.542969 L 2.210938 -5.542969 C 2.378906 -5.90625 2.65625 -6.230469 3.035156 -6.515625 C 3.417969 -6.800781 3.972656 -6.941406 4.703125 -6.941406 C 5.195312 -6.941406 5.648438 -6.839844 6.058594 -6.632812 C 6.46875 -6.429688 6.800781 -6.117188 7.046875 -5.703125 C 7.292969 -5.289062 7.417969 -4.769531 7.417969 -4.140625 L 7.417969 0 L 6.578125 0 L 6.578125 -4.085938 C 6.578125 -4.832031 6.390625 -5.371094 6.019531 -5.695312 C 5.644531 -6.023438 5.144531 -6.1875 4.519531 -6.1875 C 3.820312 -6.1875 3.238281 -5.953125 2.769531 -5.492188 C 2.304688 -5.03125 2.070312 -4.332031 2.070312 -3.402344 L 2.070312 0 Z M 1.230469 0 "/></g></g></g><g fill="#269b63" fill-opacity="1"><g transform="translate(272.500988, 119.331763)"><g><path d="M 3.933594 0.195312 C 3.113281 0.195312 2.410156 0 1.828125 -0.390625 C 1.242188 -0.785156 0.886719 -1.433594 0.753906 -2.335938 L 1.582031 -2.492188 C 1.65625 -1.996094 1.808594 -1.605469 2.035156 -1.324219 C 2.265625 -1.039062 2.542969 -0.835938 2.875 -0.714844 C 3.207031 -0.59375 3.558594 -0.53125 3.933594 -0.53125 C 4.492188 -0.53125 4.941406 -0.644531 5.28125 -0.875 C 5.625 -1.101562 5.792969 -1.417969 5.792969 -1.820312 C 5.792969 -2.230469 5.632812 -2.515625 5.3125 -2.671875 C 4.988281 -2.832031 4.5625 -2.957031 4.03125 -3.050781 L 3.386719 -3.164062 C 2.957031 -3.238281 2.570312 -3.351562 2.226562 -3.503906 C 1.878906 -3.660156 1.605469 -3.867188 1.40625 -4.128906 C 1.207031 -4.390625 1.105469 -4.714844 1.105469 -5.109375 C 1.105469 -5.695312 1.335938 -6.15625 1.796875 -6.492188 C 2.261719 -6.828125 2.875 -6.996094 3.640625 -6.996094 C 4.414062 -6.996094 5.035156 -6.824219 5.507812 -6.472656 C 5.976562 -6.121094 6.273438 -5.617188 6.394531 -4.953125 L 5.613281 -4.785156 C 5.519531 -5.328125 5.296875 -5.710938 4.945312 -5.933594 C 4.597656 -6.15625 4.160156 -6.269531 3.640625 -6.269531 C 3.125 -6.269531 2.714844 -6.171875 2.40625 -5.976562 C 2.097656 -5.78125 1.945312 -5.492188 1.945312 -5.109375 C 1.945312 -4.734375 2.085938 -4.460938 2.363281 -4.289062 C 2.644531 -4.117188 3.027344 -3.988281 3.511719 -3.90625 L 4.15625 -3.792969 C 4.621094 -3.71875 5.042969 -3.609375 5.417969 -3.464844 C 5.789062 -3.320312 6.085938 -3.117188 6.304688 -2.855469 C 6.523438 -2.59375 6.632812 -2.25 6.632812 -1.820312 C 6.632812 -1.175781 6.390625 -0.679688 5.90625 -0.328125 C 5.421875 0.0195312 4.761719 0.195312 3.933594 0.195312 Z M 3.933594 0.195312 "/></g></g></g><g fill="#269b63" fill-opacity="1"><g transform="translate(279.888881, 119.331763)"><g/></g></g><g fill="#269b63" fill-opacity="1"><g transform="translate(283.498851, 119.331763)"><g><path d="M 1.230469 0 L 1.230469 -6.800781 L 2.070312 -6.800781 L 2.070312 0 Z M 1.652344 -7.976562 C 1.445312 -7.976562 1.273438 -8.046875 1.132812 -8.1875 C 0.992188 -8.328125 0.921875 -8.5 0.921875 -8.703125 C 0.921875 -8.917969 0.992188 -9.09375 1.132812 -9.230469 C 1.273438 -9.363281 1.445312 -9.433594 1.652344 -9.433594 C 1.867188 -9.433594 2.039062 -9.363281 2.175781 -9.230469 C 2.3125 -9.09375 2.378906 -8.917969 2.378906 -8.703125 C 2.378906 -8.5 2.3125 -8.328125 2.175781 -8.1875 C 2.039062 -8.046875 1.867188 -7.976562 1.652344 -7.976562 Z M 1.652344 -7.976562 "/></g></g></g><g fill="#269b63" fill-opacity="1"><g transform="translate(286.801021, 119.331763)"><g><path d="M 1.230469 0 L 1.230469 -6.800781 L 2.042969 -6.800781 L 2.042969 -5.542969 L 2.210938 -5.542969 C 2.378906 -5.90625 2.65625 -6.230469 3.035156 -6.515625 C 3.417969 -6.800781 3.972656 -6.941406 4.703125 -6.941406 C 5.195312 -6.941406 5.648438 -6.839844 6.058594 -6.632812 C 6.46875 -6.429688 6.800781 -6.117188 7.046875 -5.703125 C 7.292969 -5.289062 7.417969 -4.769531 7.417969 -4.140625 L 7.417969 0 L 6.578125 0 L 6.578125 -4.085938 C 6.578125 -4.832031 6.390625 -5.371094 6.019531 -5.695312 C 5.644531 -6.023438 5.144531 -6.1875 4.519531 -6.1875 C 3.820312 -6.1875 3.238281 -5.953125 2.769531 -5.492188 C 2.304688 -5.03125 2.070312 -4.332031 2.070312 -3.402344 L 2.070312 0 Z M 1.230469 0 "/></g></g></g><g fill="#269b63" fill-opacity="1"><g transform="translate(295.364245, 119.331763)"><g/></g></g><g fill="#269b63" fill-opacity="1"><g transform="translate(298.974238, 119.331763)"><g><path d="M 1.203125 0 L 1.203125 -9.796875 L 4.828125 -9.796875 C 5.40625 -9.796875 5.925781 -9.6875 6.390625 -9.46875 C 6.851562 -9.25 7.214844 -8.933594 7.488281 -8.523438 C 7.757812 -8.113281 7.894531 -7.613281 7.894531 -7.027344 L 7.894531 -6.859375 C 7.894531 -6.269531 7.753906 -5.769531 7.480469 -5.351562 C 7.207031 -4.9375 6.835938 -4.621094 6.375 -4.410156 C 5.914062 -4.195312 5.398438 -4.085938 4.828125 -4.085938 L 2.097656 -4.085938 L 2.097656 0 Z M 2.097656 -4.898438 L 4.730469 -4.898438 C 5.429688 -4.898438 5.984375 -5.070312 6.390625 -5.417969 C 6.792969 -5.761719 6.996094 -6.246094 6.996094 -6.871094 L 6.996094 -7.011719 C 6.996094 -7.644531 6.800781 -8.132812 6.402344 -8.472656 C 6.007812 -8.816406 5.449219 -8.984375 4.730469 -8.984375 L 2.097656 -8.984375 Z M 2.097656 -4.898438 "/></g></g></g><g fill="#269b63" fill-opacity="1"><g transform="translate(307.369554, 119.331763)"><g><path d="M 2.085938 2.800781 L 2.085938 2.042969 L 6.058594 2.042969 C 6.339844 2.042969 6.480469 1.902344 6.480469 1.625 L 6.480469 -1.175781 L 6.3125 -1.175781 C 6.199219 -0.953125 6.042969 -0.738281 5.84375 -0.539062 C 5.640625 -0.339844 5.382812 -0.175781 5.058594 -0.0507812 C 4.738281 0.078125 4.332031 0.140625 3.847656 0.140625 C 3.363281 0.140625 2.914062 0.0390625 2.5 -0.167969 C 2.082031 -0.375 1.75 -0.679688 1.503906 -1.089844 C 1.257812 -1.503906 1.132812 -2.019531 1.132812 -2.644531 L 1.132812 -6.800781 L 1.972656 -6.800781 L 1.972656 -2.699219 C 1.972656 -1.964844 2.160156 -1.433594 2.53125 -1.105469 C 2.90625 -0.777344 3.40625 -0.617188 4.03125 -0.617188 C 4.730469 -0.617188 5.3125 -0.84375 5.78125 -1.300781 C 6.246094 -1.757812 6.480469 -2.453125 6.480469 -3.386719 L 6.480469 -6.800781 L 7.320312 -6.800781 L 7.320312 1.734375 C 7.320312 2.070312 7.226562 2.332031 7.046875 2.519531 C 6.863281 2.707031 6.589844 2.800781 6.226562 2.800781 Z M 2.085938 2.800781 "/></g></g></g><g fill="#269b63" fill-opacity="1"><g transform="translate(315.918771, 119.331763)"><g><path d="M 3.695312 0 C 3.332031 0 3.058594 -0.09375 2.875 -0.28125 C 2.695312 -0.464844 2.601562 -0.726562 2.601562 -1.0625 L 2.601562 -6.046875 L 0.417969 -6.046875 L 0.417969 -6.800781 L 2.601562 -6.800781 L 2.601562 -9.347656 L 3.441406 -9.347656 L 3.441406 -6.800781 L 5.820312 -6.800781 L 5.820312 -6.046875 L 3.441406 -6.046875 L 3.441406 -1.175781 C 3.441406 -0.894531 3.582031 -0.753906 3.863281 -0.753906 L 5.457031 -0.753906 L 5.457031 0 Z M 3.695312 0 "/></g></g></g><g fill="#269b63" fill-opacity="1"><g transform="translate(322.383172, 119.331763)"><g><path d="M 1.230469 0 L 1.230469 -9.796875 L 2.070312 -9.796875 L 2.070312 -5.613281 L 2.238281 -5.613281 C 2.351562 -5.835938 2.507812 -6.046875 2.707031 -6.25 C 2.910156 -6.449219 3.167969 -6.613281 3.492188 -6.738281 C 3.8125 -6.863281 4.21875 -6.925781 4.703125 -6.925781 C 5.195312 -6.925781 5.648438 -6.824219 6.058594 -6.621094 C 6.46875 -6.414062 6.800781 -6.105469 7.046875 -5.695312 C 7.292969 -5.285156 7.417969 -4.769531 7.417969 -4.140625 L 7.417969 0 L 6.578125 0 L 6.578125 -4.085938 C 6.578125 -4.832031 6.390625 -5.367188 6.019531 -5.6875 C 5.644531 -6.011719 5.144531 -6.171875 4.519531 -6.171875 C 3.820312 -6.171875 3.238281 -5.941406 2.769531 -5.484375 C 2.304688 -5.027344 2.070312 -4.332031 2.070312 -3.402344 L 2.070312 0 Z M 1.230469 0 "/></g></g></g><g fill="#269b63" fill-opacity="1"><g transform="translate(330.946396, 119.331763)"><g><path d="M 4.339844 0.195312 C 3.648438 0.195312 3.042969 0.0507812 2.527344 -0.246094 C 2.007812 -0.539062 1.605469 -0.949219 1.324219 -1.476562 C 1.039062 -2.003906 0.894531 -2.617188 0.894531 -3.316406 L 0.894531 -3.484375 C 0.894531 -4.183594 1.039062 -4.796875 1.324219 -5.324219 C 1.605469 -5.851562 2.007812 -6.261719 2.527344 -6.558594 C 3.042969 -6.851562 3.648438 -6.996094 4.339844 -6.996094 C 5.027344 -6.996094 5.632812 -6.851562 6.152344 -6.558594 C 6.667969 -6.261719 7.070312 -5.851562 7.355469 -5.324219 C 7.640625 -4.796875 7.78125 -4.183594 7.78125 -3.484375 L 7.78125 -3.316406 C 7.78125 -2.617188 7.640625 -2.003906 7.355469 -1.476562 C 7.070312 -0.949219 6.667969 -0.539062 6.152344 -0.246094 C 5.632812 0.0507812 5.027344 0.195312 4.339844 0.195312 Z M 4.339844 -0.558594 C 5.140625 -0.558594 5.773438 -0.8125 6.242188 -1.324219 C 6.707031 -1.832031 6.941406 -2.503906 6.941406 -3.34375 L 6.941406 -3.457031 C 6.941406 -4.296875 6.707031 -4.96875 6.242188 -5.480469 C 5.773438 -5.988281 5.140625 -6.242188 4.339844 -6.242188 C 3.546875 -6.242188 2.914062 -5.988281 2.441406 -5.480469 C 1.972656 -4.96875 1.734375 -4.296875 1.734375 -3.457031 L 1.734375 -3.34375 C 1.734375 -2.503906 1.972656 -1.832031 2.441406 -1.324219 C 2.914062 -0.8125 3.546875 -0.558594 4.339844 -0.558594 Z M 4.339844 -0.558594 "/></g></g></g><g fill="#269b63" fill-opacity="1"><g transform="translate(339.621544, 119.331763)"><g><path d="M 1.230469 0 L 1.230469 -6.800781 L 2.042969 -6.800781 L 2.042969 -5.542969 L 2.210938 -5.542969 C 2.378906 -5.90625 2.65625 -6.230469 3.035156 -6.515625 C 3.417969 -6.800781 3.972656 -6.941406 4.703125 -6.941406 C 5.195312 -6.941406 5.648438 -6.839844 6.058594 -6.632812 C 6.46875 -6.429688 6.800781 -6.117188 7.046875 -5.703125 C 7.292969 -5.289062 7.417969 -4.769531 7.417969 -4.140625 L 7.417969 0 L 6.578125 0 L 6.578125 -4.085938 C 6.578125 -4.832031 6.390625 -5.371094 6.019531 -5.695312 C 5.644531 -6.023438 5.144531 -6.1875 4.519531 -6.1875 C 3.820312 -6.1875 3.238281 -5.953125 2.769531 -5.492188 C 2.304688 -5.03125 2.070312 -4.332031 2.070312 -3.402344 L 2.070312 0 Z M 1.230469 0 "/></g></g></g></svg>